HIERARCHY
ROOT Haolin_V1:Solving:Hips
{
	OFFSET 0.000000 0.000000 0.000000
	CHANNELS 6 Xposition Yposition Zposition Xrotation Yrotation Zrotation
	JOINT Haolin_V1:Solving:Spine
	{
		OFFSET 0.000000 -12.731938 2.520517
		CHANNELS 6 Xposition Yposition Zposition Xrotation Yrotation Zrotation
		JOINT Haolin_V1:Solving:Spine1
		{
			OFFSET 0.000000 -8.486854 1.496462
			CHANNELS 6 Xposition Yposition Zposition Xrotation Yrotation Zrotation
			JOINT Haolin_V1:Solving:Spine2
			{
				OFFSET 0.000000 -8.584984 0.751091
				CHANNELS 6 Xposition Yposition Zposition Xrotation Yrotation Zrotation
				JOINT Haolin_V1:Solving:Spine3
				{
					OFFSET 0.000000 -8.617775 0.000000
					CHANNELS 6 Xposition Yposition Zposition Xrotation Yrotation Zrotation
					JOINT Haolin_V1:Solving:Neck
					{
						OFFSET 0.000000 -11.080002 -1.107998
						CHANNELS 6 Xposition Yposition Zposition Xrotation Yrotation Zrotation
						JOINT Haolin_V1:Solving:Neck1
						{
							OFFSET 0.000000 -8.314011 -0.727381
							CHANNELS 6 Xposition Yposition Zposition Xrotation Yrotation Zrotation
							JOINT Haolin_V1:Solving:Head
							{
								OFFSET 0.000000 -8.218975 -1.449226
								CHANNELS 6 Xposition Yposition Zposition Xrotation Yrotation Zrotation
								JOINT Haolin_V1:Solving:HeadEnd
								{
									OFFSET 0.000000 -9.728081 0.000002
									CHANNELS 6 Xposition Yposition Zposition Xrotation Yrotation Zrotation
									End Site
									{
										OFFSET 0.000000 -9.728081 0.000002
									}
								}
							}
						}
					}
					JOINT Haolin_V1:Solving:RightShoulder
					{
						OFFSET 0.000000 -7.914288 -5.288076
						CHANNELS 6 Xposition Yposition Zposition Xrotation Yrotation Zrotation
						JOINT Haolin_V1:Solving:RightArm
						{
							OFFSET -20.201836 -0.000008 0.000000
							CHANNELS 6 Xposition Yposition Zposition Xrotation Yrotation Zrotation
							JOINT Haolin_V1:Solving:RightForeArm
							{
								OFFSET -29.446457 -0.000008 0.000000
								CHANNELS 6 Xposition Yposition Zposition Xrotation Yrotation Zrotation
								JOINT Haolin_V1:Solving:RightHand
								{
									OFFSET -23.111885 -0.000008 0.000000
									CHANNELS 6 Xposition Yposition Zposition Xrotation Yrotation Zrotation
									JOINT Haolin_V1:Solving:RightHandThumb1
									{
										OFFSET -3.824379 2.925484 -2.843767
										CHANNELS 6 Xposition Yposition Zposition Xrotation Yrotation Zrotation
										End Site
										{
											OFFSET -5.557076 0.000000 -5.608460
										}
									}
									JOINT Haolin_V1:Solving:RightHandMiddle1
									{
										OFFSET -10.198334 -0.000004 0.065374
										CHANNELS 6 Xposition Yposition Zposition Xrotation Yrotation Zrotation
										End Site
										{
											OFFSET -7.895309 -0.000004 0.000000
										}
									}
								}
							}
						}
					}
					JOINT Haolin_V1:Solving:LeftShoulder
					{
						OFFSET 0.000000 -7.914288 -5.288076
						CHANNELS 6 Xposition Yposition Zposition Xrotation Yrotation Zrotation
						JOINT Haolin_V1:Solving:LeftArm
						{
							OFFSET 20.201836 -0.000008 0.000000
							CHANNELS 6 Xposition Yposition Zposition Xrotation Yrotation Zrotation
							JOINT Haolin_V1:Solving:LeftForeArm
							{
								OFFSET 29.446457 -0.000008 0.000000
								CHANNELS 6 Xposition Yposition Zposition Xrotation Yrotation Zrotation
								JOINT Haolin_V1:Solving:LeftHand
								{
									OFFSET 23.111885 -0.000008 0.000000
									CHANNELS 6 Xposition Yposition Zposition Xrotation Yrotation Zrotation
									JOINT Haolin_V1:Solving:LeftHandThumb1
									{
										OFFSET 3.824379 2.925484 -2.843767
										CHANNELS 6 Xposition Yposition Zposition Xrotation Yrotation Zrotation
										End Site
										{
											OFFSET 5.557076 0.000000 -5.608460
										}
									}
									JOINT Haolin_V1:Solving:LeftHandMiddle1
									{
										OFFSET 10.198334 -0.000004 0.065374
										CHANNELS 6 Xposition Yposition Zposition Xrotation Yrotation Zrotation
										End Site
										{
											OFFSET 7.895309 -0.000004 0.000000
										}
									}
								}
							}
						}
					}
				}
			}
		}
	}
	JOINT Haolin_V1:Solving:RightUpLeg
	{
		OFFSET -10.695510 0.000000 0.000000
		CHANNELS 6 Xposition Yposition Zposition Xrotation Yrotation Zrotation
		JOINT Haolin_V1:Solving:RightLeg
		{
			OFFSET 0.000000 46.236332 -0.000006
			CHANNELS 6 Xposition Yposition Zposition Xrotation Yrotation Zrotation
			JOINT Haolin_V1:Solving:RightFoot
			{
				OFFSET 0.000000 41.248135 -0.000006
				CHANNELS 6 Xposition Yposition Zposition Xrotation Yrotation Zrotation
				JOINT Haolin_V1:Solving:RightForeFoot
				{
					OFFSET 0.000000 3.207336 -0.000000
					CHANNELS 6 Xposition Yposition Zposition Xrotation Yrotation Zrotation
					JOINT Haolin_V1:Solving:RightToeBase
					{
						OFFSET 0.000000 0.000000 -12.560947
						CHANNELS 6 Xposition Yposition Zposition Xrotation Yrotation Zrotation
						JOINT Haolin_V1:Solving:RightToeBaseEnd
						{
							OFFSET 0.000000 0.000000 -3.517768
							CHANNELS 6 Xposition Yposition Zposition Xrotation Yrotation Zrotation
							End Site
							{
								OFFSET 0.000000 -3.517769 0.000004
							}
						}
					}
				}
			}
		}
	}
	JOINT Haolin_V1:Solving:LeftUpLeg
	{
		OFFSET 10.695510 0.000000 0.000000
		CHANNELS 6 Xposition Yposition Zposition Xrotation Yrotation Zrotation
		JOINT Haolin_V1:Solving:LeftLeg
		{
			OFFSET 0.000000 46.236332 -0.000006
			CHANNELS 6 Xposition Yposition Zposition Xrotation Yrotation Zrotation
			JOINT Haolin_V1:Solving:LeftFoot
			{
				OFFSET 0.000000 41.248135 -0.000006
				CHANNELS 6 Xposition Yposition Zposition Xrotation Yrotation Zrotation
				JOINT Haolin_V1:Solving:LeftForeFoot
				{
					OFFSET 0.000000 3.207336 -0.000000
					CHANNELS 6 Xposition Yposition Zposition Xrotation Yrotation Zrotation
					JOINT Haolin_V1:Solving:LeftToeBase
					{
						OFFSET 0.000000 0.000000 -12.560947
						CHANNELS 6 Xposition Yposition Zposition Xrotation Yrotation Zrotation
						JOINT Haolin_V1:Solving:LeftToeBaseEnd
						{
							OFFSET 0.000000 0.000000 -3.901837
							CHANNELS 6 Xposition Yposition Zposition Xrotation Yrotation Zrotation
							End Site
							{
								OFFSET 0.000000 -3.901840 0.000004
							}
						}
					}
				}
			}
		}
	}
}
MOTION
Frames: 5
Frame Time: 0.041667
-24.356201 -109.007568 -94.771194 86.555750 -1.479270 -2.107835 0.000002 -12.731938 2.520499 12.052116 -1.711379 -2.758111 0.000002 -8.486849 1.496474 0.155409 -0.082352 -0.191635 0.000005 -8.584998 0.751108 -5.607658 -1.520122 0.516622 -0.000003 -8.617740 -0.000001 -2.886685 -0.634210 2.485839 -0.000002 -11.079967 -1.107960 2.832589 -1.378107 -0.405387 0.000001 -8.314002 -0.727391 2.857618 -4.908835 -1.044131 0.000001 -8.219001 -1.449246 11.423179 -0.263807 -1.269390 0.000000 -9.728081 -0.000008 -0.000001 -0.000001 -0.000000 -0.000000 -7.914253 -5.288040 -0.000006 16.035971 10.136923 -20.201847 -0.000021 0.000003 3.099947 -49.162073 -76.370456 -29.446430 -0.000000 -0.000031 23.108217 -25.374301 10.362311 -23.111885 -0.000031 -0.000009 -0.050539 3.002556 0.964687 -3.824371 2.925465 -2.843759 0.000004 -0.000009 0.000000 -10.198308 -0.000017 0.065373 0.000003 -0.000005 0.000004 -0.000000 -7.914253 -5.288040 -0.000002 -12.776544 -9.440033 20.201828 -0.000020 0.000009 -8.290292 39.504404 88.271521 29.446465 -0.000007 0.000004 28.901508 13.819193 -7.511938 23.111883 0.000006 -0.000004 0.639622 2.897400 -12.454680 3.824372 2.925478 -2.843758 0.000007 0.000003 0.000001 10.198325 -0.000016 0.065370 0.000007 0.000000 -0.000001 -10.695509 0.000013 -0.000033 11.457748 10.377777 1.739511 0.000004 46.236347 -0.000017 -2.029863 -0.000002 -0.000000 0.000003 41.248123 -0.000011 -6.894893 0.016962 -5.755343 -0.000005 3.207344 0.000020 0.000000 0.000001 0.000001 -0.000005 -0.000012 -12.560965 8.787850 -0.000001 -0.000000 -0.000012 0.000007 -3.517759 -0.000001 -0.000001 -0.000001 10.695512 0.000007 -0.000000 -14.801578 -14.019286 -2.961222 -0.000000 46.236336 0.000001 22.623825 0.000001 0.000000 0.000006 41.248138 0.000012 -4.071074 -15.847666 -8.351621 0.000001 3.207336 -0.000022 0.000001 -0.000003 -0.000002 0.000004 0.000016 -12.560960 5.383153 -0.000002 -0.000000 -0.000003 0.000008 -3.901813 -0.000001 0.000002 0.000001 
-24.287939 -108.797012 -94.743637 86.584976 -1.483598 -2.047896 0.000005 -12.731936 2.520519 12.090148 -1.737128 -2.829913 0.000001 -8.486855 1.496461 0.177095 -0.080720 -0.190561 -0.000002 -8.584987 0.751096 -5.602534 -1.524937 0.519689 -0.000002 -8.617782 0.000000 -2.905140 -0.633853 2.538167 -0.000000 -11.080018 -1.107992 2.742303 -1.329767 -0.356804 0.000000 -8.313992 -0.727384 2.890575 -4.763928 -1.030943 0.000003 -8.218957 -1.449221 11.439489 -0.255089 -1.261162 -0.000004 -9.728096 0.000012 0.000001 -0.000000 0.000000 -0.000001 -7.914284 -5.288082 -0.000008 15.952170 10.179169 -20.201834 0.000003 -0.000001 2.681399 -48.624629 -76.541333 -29.446468 0.000000 0.000015 22.889313 -25.608404 10.341514 -23.111879 -0.000018 0.000007 -0.082331 2.990836 1.577371 -3.824376 2.925479 -2.843777 -0.000005 -0.000005 0.000003 -10.198334 -0.000008 0.065361 -0.000005 -0.000005 -0.000000 0.000000 -7.914284 -5.288082 -0.000003 -12.751038 -9.450176 20.201824 0.000034 -0.000022 -8.292820 39.127302 88.215035 29.446442 -0.000014 0.000015 28.538142 13.694178 -7.336037 23.111877 -0.000010 -0.000002 0.633723 2.766274 -12.908627 3.824405 2.925447 -2.843768 0.000007 -0.000003 0.000003 10.198352 -0.000005 0.065380 -0.000004 -0.000001 0.000003 -10.695499 -0.000022 -0.000007 11.511473 10.590014 1.726369 0.000003 46.236366 -0.000014 -1.912303 -0.000001 0.000000 -0.000006 41.248131 -0.000002 -7.054001 -0.169744 -5.879125 -0.000012 3.207336 0.000027 0.000000 0.000002 0.000000 -0.000007 -0.000003 -12.560961 8.772401 0.000001 0.000000 0.000005 0.000007 -3.517769 -0.000001 -0.000000 0.000001 10.695516 0.000009 -0.000013 -15.013321 -14.075791 -2.996406 -0.000007 46.236320 -0.000010 21.476348 -0.000003 0.000001 0.000006 41.248135 -0.000008 -3.082976 -15.745753 -8.260833 -0.000002 3.207336 -0.000005 0.000001 0.000001 0.000001 0.000009 0.000015 -12.560948 4.114350 -0.000001 -0.000002 0.000015 0.000000 -3.901829 0.000001 0.000004 -0.000001 
-24.212593 -108.565475 -94.710243 86.618724 -1.450444 -1.972743 -0.000003 -12.731948 2.520509 12.129044 -1.777056 -2.918039 -0.000001 -8.486849 1.496482 0.174759 -0.080529 -0.180507 -0.000001 -8.584981 0.751108 -5.589770 -1.548939 0.519676 0.000002 -8.617747 -0.000005 -2.903673 -0.640127 2.582726 0.000000 -11.080014 -1.107998 2.693280 -1.285324 -0.307627 0.000001 -8.313994 -0.727360 2.825191 -4.617681 -1.002247 -0.000002 -8.218987 -1.449229 11.434913 -0.248043 -1.232743 0.000004 -9.728081 -0.000049 -0.000001 -0.000000 0.000000 -0.000001 -7.914310 -5.288072 -0.000015 15.907186 10.210524 -20.201826 0.000018 0.000012 2.267147 -48.108673 -76.691632 -29.446484 -0.000006 -0.000008 22.668903 -25.884677 10.333645 -23.111874 -0.000029 -0.000002 -0.110235 2.985664 2.115345 -3.824381 2.925472 -2.843777 0.000003 -0.000007 -0.000003 -10.198324 -0.000012 0.065364 0.000005 -0.000003 0.000003 0.000003 -7.914310 -5.288072 -0.000011 -12.722107 -9.428963 20.201818 -0.000004 -0.000009 -8.281598 38.794129 88.225144 29.446445 -0.000016 -0.000002 29.078482 13.252480 -7.264943 23.111874 -0.000026 -0.000005 0.672901 2.681226 -14.094146 3.824403 2.925476 -2.843769 -0.000005 0.000003 0.000002 10.198357 -0.000015 0.065358 0.000003 0.000004 0.000000 -10.695506 -0.000018 0.000007 11.569429 10.775724 1.704470 0.000003 46.236340 -0.000011 -1.792594 0.000001 0.000000 -0.000003 41.248135 -0.000013 -7.241145 -0.343589 -5.921355 -0.000006 3.207329 -0.000004 0.000000 0.000000 0.000000 -0.000007 -0.000005 -12.560955 8.841694 0.000000 -0.000001 -0.000005 0.000000 -3.517783 -0.000000 -0.000002 0.000000 10.695509 -0.000025 -0.000007 -15.152167 -14.101567 -3.032842 -0.000003 46.236340 -0.000038 20.218933 0.000000 0.000001 -0.000002 41.248146 0.000018 -2.149899 -15.746706 -7.976841 -0.000004 3.207344 -0.000014 0.000000 -0.000001 -0.000001 -0.000008 -0.000005 -12.560960 4.127764 0.000001 -0.000002 0.000008 0.000000 -3.901835 0.000000 0.000001 0.000000 
-24.125551 -108.328751 -94.680710 86.648463 -1.434450 -1.922187 0.000005 -12.731930 2.520519 12.166659 -1.788357 -2.988132 -0.000005 -8.486851 1.496464 0.175541 -0.079603 -0.160042 0.000002 -8.584966 0.751096 -5.566916 -1.565833 0.515649 0.000000 -8.617776 0.000014 -2.898146 -0.640137 2.622011 -0.000001 -11.079954 -1.108006 2.611410 -1.261286 -0.252408 0.000001 -8.314018 -0.727387 2.801962 -4.472455 -0.978007 0.000004 -8.218985 -1.449259 11.377718 -0.239525 -1.218495 0.000001 -9.728096 -0.000013 0.000003 0.000001 0.000000 -0.000001 -7.914261 -5.288085 -0.000009 15.837353 10.239394 -20.201838 0.000011 0.000004 1.868118 -47.591850 -76.844655 -29.446459 -0.000013 -0.000022 22.535886 -26.207733 10.384254 -23.111912 -0.000035 0.000008 -0.147227 3.120019 2.702989 -3.824377 2.925465 -2.843771 0.000005 0.000003 -0.000007 -10.198319 -0.000010 0.065362 -0.000002 0.000001 -0.000001 0.000001 -7.914261 -5.288085 -0.000004 -12.713098 -9.417297 20.201824 0.000010 -0.000004 -8.294941 38.354354 88.235888 29.446411 -0.000012 -0.000004 28.763685 13.086537 -7.084910 23.111881 -0.000035 -0.000001 0.651044 2.504350 -14.577452 3.824380 2.925485 -2.843751 0.000007 0.000005 -0.000009 10.198320 -0.000010 0.065387 -0.000000 0.000002 -0.000007 -10.695498 0.000004 -0.000010 11.649920 10.783007 1.705635 -0.000002 46.236340 0.000007 -1.688688 -0.000002 0.000000 0.000001 41.248135 -0.000008 -7.483604 -0.278270 -5.841385 0.000003 3.207329 -0.000007 -0.000000 -0.000001 -0.000000 -0.000003 0.000001 -12.560959 9.214075 -0.000001 -0.000001 -0.000005 0.000016 -3.517742 0.000001 -0.000002 0.000000 10.695511 -0.000006 -0.000008 -15.214873 -14.085081 -3.016237 -0.000004 46.236340 -0.000029 18.824256 -0.000003 0.000001 -0.000004 41.248150 -0.000023 -1.072610 -15.785204 -7.624287 0.000004 3.207337 -0.000005 -0.000000 0.000000 -0.000001 0.000004 -0.000000 -12.560955 3.763214 0.000003 -0.000000 0.000002 0.000000 -3.901844 0.000000 -0.000002 0.000001 
-24.043623 -108.066353 -94.646210 86.659043 -1.388468 -1.829299 0.000002 -12.731927 2.520524 12.205987 -1.812017 -3.086433 0.000001 -8.486839 1.496461 0.177360 -0.079707 -0.151019 -0.000001 -8.584990 0.751079 -5.548075 -1.607114 0.520976 -0.000005 -8.617770 -0.000008 -2.879530 -0.647275 2.644010 0.000003 -11.079995 -1.108004 2.555371 -1.205971 -0.201600 0.000003 -8.314028 -0.727371 2.743750 -4.301482 -0.941839 0.000000 -8.218983 -1.449241 11.311847 -0.231427 -1.165630 -0.000005 -9.728065 -0.000021 0.000005 -0.000002 0.000000 -0.000002 -7.914276 -5.288094 -0.000010 15.816264 10.259691 -20.201820 0.000023 -0.000003 1.435388 -47.169594 -76.997959 -29.446449 -0.000010 -0.000004 22.251612 -26.478275 10.338138 -23.111912 -0.000005 -0.000004 -0.169268 2.993076 3.238058 -3.824380 2.925472 -2.843752 -0.000003 -0.000005 -0.000002 -10.198313 -0.000001 0.065387 0.000000 -0.000004 -0.000002 -0.000001 -7.914261 -5.288094 -0.000005 -12.729500 -9.429009 20.201832 0.000016 0.000000 -8.349147 37.929116 88.301785 29.446449 -0.000009 -0.000015 28.129067 12.997210 -6.855946 23.111872 -0.000023 -0.000005 0.596242 2.264666 -14.754585 3.824379 2.925476 -2.843759 0.000009 0.000000 0.000000 10.198318 -0.000015 0.065367 0.000003 -0.000001 -0.000000 -10.695513 0.000019 -0.000004 11.774006 10.733275 1.662520 0.000009 46.236351 -0.000034 -1.592115 -0.000003 -0.000000 -0.000014 41.248142 0.000000 -7.717467 -0.188595 -5.650535 0.000000 3.207329 0.000006 -0.000000 0.000000 0.000000 -0.000005 0.000001 -12.560960 9.486108 -0.000001 0.000000 -0.000001 -0.000008 -3.517785 -0.000001 0.000000 -0.000000 10.695510 0.000003 0.000003 -15.322945 -14.282194 -3.108553 0.000010 46.236340 -0.000004 17.574586 -0.000000 0.000000 0.000001 41.248150 -0.000023 -0.032943 -15.590525 -7.134019 -0.000003 3.207336 0.000010 -0.000000 -0.000003 -0.000001 0.000003 0.000005 -12.560943 3.921102 0.000001 0.000000 0.000000 0.000000 -3.901826 0.000000 0.000001 -0.000000 
